<?xml version="1.0" encoding="UTF-8" standalone="no"?>
<svg xmlns="http://www.w3.org/2000/svg" xmlns:xlink="http://www.w3.org/1999/xlink" contentScriptType="application/ecmascript" contentStyleType="text/css" height="771px" preserveAspectRatio="none" style="width:1233px;height:771px;" version="1.1" viewBox="0 0 1233 771" width="1233px" zoomAndPan="magnify"><defs><filter height="300%" id="fzqo096aflo34" width="300%" x="-1" y="-1"><feGaussianBlur result="blurOut" stdDeviation="2.0"/><feColorMatrix in="blurOut" result="blurOut2" type="matrix" values="0 0 0 0 0 0 0 0 0 0 0 0 0 0 0 0 0 0 .4 0"/><feOffset dx="4.0" dy="4.0" in="blurOut2" result="blurOut3"/><feBlend in="SourceGraphic" in2="blurOut3" mode="normal"/></filter></defs><g><!--cluster CCU1/2/3\nRaspberryMatic\npiVCCU/YAHM\n(bis zu 10 Zentralen)--><rect fill="#FFFFFF" filter="url(#fzqo096aflo34)" height="558" style="stroke: #000000; stroke-width: 1.5;" width="193" x="22" y="24"/><text fill="#000000" font-family="sans-serif" font-size="14" font-weight="bold" lengthAdjust="spacingAndGlyphs" textLength="73" x="82" y="38.9951">CCU1/2/3</text><text fill="#000000" font-family="sans-serif" font-size="14" font-weight="bold" lengthAdjust="spacingAndGlyphs" textLength="122" x="57.5" y="55.292">RaspberryMatic</text><text fill="#000000" font-family="sans-serif" font-size="14" font-weight="bold" lengthAdjust="spacingAndGlyphs" textLength="108" x="64.5" y="71.5889">piVCCU/YAHM</text><text fill="#000000" font-family="sans-serif" font-size="14" font-weight="bold" lengthAdjust="spacingAndGlyphs" textLength="166" x="35.5" y="87.8857">(bis zu 10 Zentralen)</text><!--cluster ccuitf--><rect fill="#FFFFFF" filter="url(#fzqo096aflo34)" height="442" style="stroke: #000000; stroke-width: 1.0; stroke-dasharray: 7.0,7.0;" width="145" x="46" y="116"/><text fill="#000000" font-family="sans-serif" font-size="14" font-weight="bold" lengthAdjust="spacingAndGlyphs" textLength="108" x="64.5" y="130.9951">Schnittstellen</text><!--cluster CCU-Historian--><rect fill="#FFFFFF" filter="url(#fzqo096aflo34)" height="619" style="stroke: #000000; stroke-width: 1.5;" width="778" x="239" y="141"/><text fill="#000000" font-family="sans-serif" font-size="14" font-weight="bold" lengthAdjust="spacingAndGlyphs" textLength="109" x="573.5" y="155.9951">CCU-Historian</text><!--cluster Schnittstellen--><rect fill="#FFFFFF" filter="url(#fzqo096aflo34)" height="229" style="stroke: #000000; stroke-width: 1.0; stroke-dasharray: 7.0,7.0;" width="124" x="263" y="222"/><text fill="#000000" font-family="sans-serif" font-size="14" font-weight="bold" lengthAdjust="spacingAndGlyphs" textLength="108" x="271" y="236.9951">Schnittstellen</text><!--cluster Vorverarbeitung--><rect fill="#FFFFFF" filter="url(#fzqo096aflo34)" height="359" style="stroke: #000000; stroke-width: 1.0; stroke-dasharray: 7.0,7.0;" width="158" x="453" y="339"/><text fill="#000000" font-family="sans-serif" font-size="14" font-weight="bold" lengthAdjust="spacingAndGlyphs" textLength="130" x="467" y="353.9951">Vorverarbeitung</text><!--cluster Datenbank-\nSchnittstellen--><rect fill="#FFFFFF" filter="url(#fzqo096aflo34)" height="192" style="stroke: #000000; stroke-width: 1.0; stroke-dasharray: 7.0,7.0;" width="138" x="842.5" y="184"/><text fill="#000000" font-family="sans-serif" font-size="14" font-weight="bold" lengthAdjust="spacingAndGlyphs" textLength="90" x="866.5" y="198.9951">Datenbank-</text><text fill="#000000" font-family="sans-serif" font-size="14" font-weight="bold" lengthAdjust="spacingAndGlyphs" textLength="108" x="857.5" y="215.292">Schnittstellen</text><!--cluster Web-Server--><rect fill="#FFFFFF" filter="url(#fzqo096aflo34)" height="336" style="stroke: #000000; stroke-width: 1.0; stroke-dasharray: 7.0,7.0;" width="163" x="830" y="400"/><text fill="#000000" font-family="sans-serif" font-size="14" font-weight="bold" lengthAdjust="spacingAndGlyphs" textLength="94" x="864.5" y="414.9951">Web-Server</text><!--cluster Fremd-\nApplikationen--><rect fill="#FFFFFF" filter="url(#fzqo096aflo34)" height="472" style="stroke: #000000; stroke-width: 1.5;" width="181" x="1041" y="128"/><text fill="#000000" font-family="sans-serif" font-size="14" font-weight="bold" lengthAdjust="spacingAndGlyphs" textLength="56" x="1103.5" y="142.9951">Fremd-</text><text fill="#000000" font-family="sans-serif" font-size="14" font-weight="bold" lengthAdjust="spacingAndGlyphs" textLength="107" x="1078" y="159.292">Applikationen</text><!--cluster appitf--><rect fill="#FFFFFF" filter="url(#fzqo096aflo34)" height="389" style="stroke: #000000; stroke-width: 1.0; stroke-dasharray: 7.0,7.0;" width="133" x="1065" y="187"/><text fill="#000000" font-family="sans-serif" font-size="14" font-weight="bold" lengthAdjust="spacingAndGlyphs" textLength="108" x="1077.5" y="201.9951">Schnittstellen</text><!--entity regahss--><rect fill="#FEFECE" filter="url(#fzqo096aflo34)" height="36.2969" style="stroke: #000000; stroke-width: 1.5;" width="82" x="77.5" y="151"/><text fill="#000000" font-family="sans-serif" font-size="14" lengthAdjust="spacingAndGlyphs" textLength="62" x="87.5" y="173.9951">RegaHss</text><!--entity bidcosrf--><rect fill="#FEFECE" filter="url(#fzqo096aflo34)" height="36.2969" style="stroke: #000000; stroke-width: 1.5;" width="92" x="72.5" y="222"/><text fill="#000000" font-family="sans-serif" font-size="14" lengthAdjust="spacingAndGlyphs" textLength="72" x="82.5" y="244.9951">BidCos-RF</text><!--entity bidcoswired--><rect fill="#FEFECE" filter="url(#fzqo096aflo34)" height="36.2969" style="stroke: #000000; stroke-width: 1.0; stroke-dasharray: 1.0,3.0;" width="113" x="62" y="293"/><text fill="#000000" font-family="sans-serif" font-size="14" lengthAdjust="spacingAndGlyphs" textLength="93" x="72" y="315.9951">BidCos-Wired</text><!--entity hmip--><rect fill="#FEFECE" filter="url(#fzqo096aflo34)" height="36.2969" style="stroke: #000000; stroke-width: 1.5;" width="55" x="91" y="364"/><text fill="#000000" font-family="sans-serif" font-size="14" lengthAdjust="spacingAndGlyphs" textLength="35" x="101" y="386.9951">HmIP</text><!--entity hmipwired--><rect fill="#FEFECE" filter="url(#fzqo096aflo34)" height="36.2969" style="stroke: #000000; stroke-width: 1.0; stroke-dasharray: 1.0,3.0;" width="99" x="69" y="435"/><text fill="#000000" font-family="sans-serif" font-size="14" lengthAdjust="spacingAndGlyphs" textLength="79" x="79" y="457.9951">HmIP-Wired</text><!--entity cuxd--><rect fill="#FEFECE" filter="url(#fzqo096aflo34)" height="36.2969" style="stroke: #000000; stroke-width: 1.0; stroke-dasharray: 1.0,3.0;" width="58" x="89.5" y="506"/><text fill="#000000" font-family="sans-serif" font-size="14" lengthAdjust="spacingAndGlyphs" textLength="38" x="99.5" y="528.9951">CUxD</text><!--entity abglmeta--><rect fill="#FEFECE" filter="url(#fzqo096aflo34)" height="52.5938" style="stroke: #000000; stroke-width: 1.5;" width="154" x="455" y="269.5"/><text fill="#000000" font-family="sans-serif" font-size="14" lengthAdjust="spacingAndGlyphs" textLength="59" x="465" y="292.4951">Abgleich</text><text fill="#000000" font-family="sans-serif" font-size="14" lengthAdjust="spacingAndGlyphs" textLength="134" x="465" y="308.792">Meta-Informationen</text><!--entity db--><path d="M669,469 C669,459 727.5,459 727.5,459 C727.5,459 786,459 786,469 L786,534.8906 C786,544.8906 727.5,544.8906 727.5,544.8906 C727.5,544.8906 669,544.8906 669,534.8906 L669,469 " fill="#FEFECE" filter="url(#fzqo096aflo34)" style="stroke: #000000; stroke-width: 1.5;"/><path d="M669,469 C669,479 727.5,479 727.5,479 C727.5,479 786,479 786,469 " fill="none" style="stroke: #000000; stroke-width: 1.5;"/><text fill="#000000" font-family="sans-serif" font-size="14" lengthAdjust="spacingAndGlyphs" textLength="76" x="679" y="495.9951">Zeitreihen-</text><text fill="#000000" font-family="sans-serif" font-size="14" lengthAdjust="spacingAndGlyphs" textLength="76" x="679" y="512.292">Datenbank</text><path d="M669,510.5938 C669,520.5938 727.5,520.5938 727.5,520.5938 C727.5,520.5938 786,520.5938 786,510.5938 " fill="none" style="stroke: #000000; stroke-width: 1.0;"/><text fill="#000000" font-family="sans-serif" font-size="14" lengthAdjust="spacingAndGlyphs" textLength="85" x="685" y="532.5889">H2Database</text><!--entity backup--><rect fill="#FEFECE" filter="url(#fzqo096aflo34)" height="52.5938" style="stroke: #000000; stroke-width: 1.5;" width="72" x="691.5" y="580.5"/><text fill="#000000" font-family="sans-serif" font-size="14" lengthAdjust="spacingAndGlyphs" textLength="49" x="701.5" y="603.4951">Autom.</text><text fill="#000000" font-family="sans-serif" font-size="14" lengthAdjust="spacingAndGlyphs" textLength="52" x="701.5" y="619.792">Backup</text><!--entity hmskript--><rect fill="#FEFECE" filter="url(#fzqo096aflo34)" height="36.2969" style="stroke: #000000; stroke-width: 1.5;" width="86" x="282" y="257"/><text fill="#000000" font-family="sans-serif" font-size="14" lengthAdjust="spacingAndGlyphs" textLength="66" x="292" y="279.9951">HM-Skript</text><!--entity xmlrpc--><rect fill="#FEFECE" filter="url(#fzqo096aflo34)" height="36.2969" style="stroke: #000000; stroke-width: 1.5;" width="82" x="284" y="328"/><text fill="#000000" font-family="sans-serif" font-size="14" lengthAdjust="spacingAndGlyphs" textLength="62" x="294" y="350.9951">XML-RPC</text><!--entity binrpc--><rect fill="#FEFECE" filter="url(#fzqo096aflo34)" height="36.2969" style="stroke: #000000; stroke-width: 1.5;" width="77" x="286.5" y="399"/><text fill="#000000" font-family="sans-serif" font-size="14" lengthAdjust="spacingAndGlyphs" textLength="57" x="296.5" y="421.9951">BIN-RPC</text><!--entity puffer--><path d="M483,374.5 L581,374.5 C586,374.5 586,395.7969 586,395.7969 C586,395.7969 586,417.0938 581,417.0938 L483,417.0938 C478,417.0938 478,395.7969 478,395.7969 C478,395.7969 478,374.5 483,374.5 " fill="#FEFECE" filter="url(#fzqo096aflo34)" style="stroke: #A80036; stroke-width: 1.5;"/><path d="M581,374.5 C576,374.5 576,395.7969 576,395.7969 C576,417.0938 581,417.0938 581,417.0938 " fill="none" style="stroke: #A80036; stroke-width: 1.5;"/><text fill="#000000" font-family="sans-serif" font-size="14" lengthAdjust="spacingAndGlyphs" textLength="40" x="483" y="392.4951">Puffer</text><text fill="#000000" font-family="sans-serif" font-size="14" lengthAdjust="spacingAndGlyphs" textLength="88" x="483" y="408.792">Arb.Speicher</text><!--entity overfl--><rect fill="#FEFECE" filter="url(#fzqo096aflo34)" height="52.5938" style="stroke: #000000; stroke-width: 1.5;" width="103" x="480.5" y="452.5"/><text fill="#000000" font-family="sans-serif" font-size="14" lengthAdjust="spacingAndGlyphs" textLength="62" x="490.5" y="475.4951">Überlauf-</text><text fill="#000000" font-family="sans-serif" font-size="14" lengthAdjust="spacingAndGlyphs" textLength="83" x="490.5" y="491.792">behandlung</text><!--entity preproc--><rect fill="#FEFECE" filter="url(#fzqo096aflo34)" height="52.5938" style="stroke: #000000; stroke-width: 1.5;" width="126" x="469" y="540.5"/><text fill="#000000" font-family="sans-serif" font-size="14" lengthAdjust="spacingAndGlyphs" textLength="92" x="479" y="563.4951">Präprozessor</text><text fill="#000000" font-family="sans-serif" font-size="14" lengthAdjust="spacingAndGlyphs" textLength="106" x="479" y="579.792">Kompr./Mittelw.</text><!--entity firstar--><rect fill="#FEFECE" filter="url(#fzqo096aflo34)" height="52.5938" style="stroke: #000000; stroke-width: 1.5;" width="97" x="483.5" y="628.5"/><text fill="#000000" font-family="sans-serif" font-size="14" lengthAdjust="spacingAndGlyphs" textLength="48" x="493.5" y="651.4951">Kennz.</text><text fill="#000000" font-family="sans-serif" font-size="14" lengthAdjust="spacingAndGlyphs" textLength="77" x="493.5" y="667.792">Erster Wert</text><!--entity postgresql--><rect fill="#FEFECE" filter="url(#fzqo096aflo34)" height="52.5938" style="stroke: #000000; stroke-width: 1.5;" width="106" x="858.5" y="235.5"/><text fill="#000000" font-family="sans-serif" font-size="14" lengthAdjust="spacingAndGlyphs" textLength="86" x="868.5" y="258.4951">PostgreSQL-</text><text fill="#000000" font-family="sans-serif" font-size="14" lengthAdjust="spacingAndGlyphs" textLength="60" x="868.5" y="274.792">Protokoll</text><!--entity jdbc--><rect fill="#FEFECE" filter="url(#fzqo096aflo34)" height="36.2969" style="stroke: #000000; stroke-width: 1.5;" width="54" x="884.5" y="324"/><text fill="#000000" font-family="sans-serif" font-size="14" lengthAdjust="spacingAndGlyphs" textLength="34" x="894.5" y="346.9951">JDBC</text><!--entity webapp--><rect fill="#FEFECE" filter="url(#fzqo096aflo34)" height="36.2969" style="stroke: #000000; stroke-width: 1.5;" width="131" x="846" y="595"/><text fill="#000000" font-family="sans-serif" font-size="14" lengthAdjust="spacingAndGlyphs" textLength="111" x="856" y="617.9951">Web-Applikation</text><!--entity export--><rect fill="#FEFECE" filter="url(#fzqo096aflo34)" height="52.5938" style="stroke: #000000; stroke-width: 1.5;" width="104" x="859.5" y="435.5"/><text fill="#000000" font-family="sans-serif" font-size="14" lengthAdjust="spacingAndGlyphs" textLength="84" x="869.5" y="458.4951">Trend-/CSV-</text><text fill="#000000" font-family="sans-serif" font-size="14" lengthAdjust="spacingAndGlyphs" textLength="44" x="869.5" y="474.792">Export</text><!--entity jsonrpc--><rect fill="#FEFECE" filter="url(#fzqo096aflo34)" height="36.2969" style="stroke: #000000; stroke-width: 1.5;" width="87" x="868" y="524"/><text fill="#000000" font-family="sans-serif" font-size="14" lengthAdjust="spacingAndGlyphs" textLength="67" x="878" y="546.9951">JSON-RPC</text><!--entity custom--><rect fill="#FEFECE" filter="url(#fzqo096aflo34)" height="52.5938" style="stroke: #000000; stroke-width: 1.5;" width="110" x="856.5" y="666.5"/><text fill="#000000" font-family="sans-serif" font-size="14" lengthAdjust="spacingAndGlyphs" textLength="90" x="866.5" y="689.4951">Benutzerdef.</text><text fill="#000000" font-family="sans-serif" font-size="14" lengthAdjust="spacingAndGlyphs" textLength="44" x="866.5" y="705.792">Seiten</text><!--entity itfpostgresql--><rect fill="#FEFECE" filter="url(#fzqo096aflo34)" height="36.2969" style="stroke: #000000; stroke-width: 1.5;" width="101" x="1081" y="222"/><text fill="#000000" font-family="sans-serif" font-size="14" lengthAdjust="spacingAndGlyphs" textLength="81" x="1091" y="244.9951">PostgreSQL</text><!--entity itfodbc--><rect fill="#FEFECE" filter="url(#fzqo096aflo34)" height="36.2969" style="stroke: #000000; stroke-width: 1.5;" width="62" x="1100.5" y="293"/><text fill="#000000" font-family="sans-serif" font-size="14" lengthAdjust="spacingAndGlyphs" textLength="42" x="1110.5" y="315.9951">ODBC</text><!--entity itfjdbc--><rect fill="#FEFECE" filter="url(#fzqo096aflo34)" height="36.2969" style="stroke: #000000; stroke-width: 1.5;" width="54" x="1104.5" y="364"/><text fill="#000000" font-family="sans-serif" font-size="14" lengthAdjust="spacingAndGlyphs" textLength="34" x="1114.5" y="386.9951">JDBC</text><!--entity itfhttp--><rect fill="#FEFECE" filter="url(#fzqo096aflo34)" height="52.5938" style="stroke: #000000; stroke-width: 1.5;" width="62" x="1100.5" y="435.5"/><text fill="#000000" font-family="sans-serif" font-size="14" lengthAdjust="spacingAndGlyphs" textLength="42" x="1110.5" y="458.4951">HTTP-</text><text fill="#000000" font-family="sans-serif" font-size="14" lengthAdjust="spacingAndGlyphs" textLength="39" x="1110.5" y="474.792">Client</text><!--entity itfjsonrpc--><rect fill="#FEFECE" filter="url(#fzqo096aflo34)" height="36.2969" style="stroke: #000000; stroke-width: 1.5;" width="87" x="1088" y="524"/><text fill="#000000" font-family="sans-serif" font-size="14" lengthAdjust="spacingAndGlyphs" textLength="67" x="1098" y="546.9951">JSON-RPC</text><!--entity webb--><rect fill="#FEFECE" filter="url(#fzqo096aflo34)" height="52.5938" style="stroke: #000000; stroke-width: 1.5;" width="77" x="1093" y="641.5"/><text fill="#000000" font-family="sans-serif" font-size="14" lengthAdjust="spacingAndGlyphs" textLength="36" x="1103" y="664.4951">Web-</text><text fill="#000000" font-family="sans-serif" font-size="14" lengthAdjust="spacingAndGlyphs" textLength="57" x="1103" y="680.792">Browser</text><!--entity grafana--><rect fill="#FEFECE" filter="url(#fzqo096aflo34)" height="36.2969" style="stroke: #000000; stroke-width: 1.5;" width="73" x="1095" y="76"/><text fill="#000000" font-family="sans-serif" font-size="14" lengthAdjust="spacingAndGlyphs" textLength="53" x="1105" y="98.9951">Grafana</text><!--link regahss to hmskript--><path d="M159.857,180.235 C179.436,186.382 202.989,194.825 223,205 C249.697,218.574 277.486,238.311 297.141,253.369 " fill="none" id="regahss-hmskript" style="stroke: #A80036; stroke-width: 1.0;"/><polygon fill="#A80036" points="301.457,256.701,296.7769,248.0352,297.499,253.6458,291.8885,254.3679,301.457,256.701" style="stroke: #A80036; stroke-width: 1.0;"/><!--link bidcosrf to xmlrpc--><path d="M164.508,245.588 C185.059,250.398 208.086,259.348 223,276 C233.646,287.886 220.505,298.98 231,311 C243.238,325.016 261.673,333.435 278.91,338.484 " fill="none" id="bidcosrf-xmlrpc" style="stroke: #A80036; stroke-width: 1.0;"/><polygon fill="#A80036" points="283.734,339.821,276.1296,333.5622,278.9157,338.4854,273.9925,341.2715,283.734,339.821" style="stroke: #A80036; stroke-width: 1.0;"/><!--link bidcoswired to xmlrpc--><path d="M175.11,320.518 C207.646,326.086 248.2,333.027 278.764,338.258 " fill="none" id="bidcoswired-xmlrpc" style="stroke: #A80036; stroke-width: 1.0;"/><polygon fill="#A80036" points="283.965,339.148,275.7696,333.6858,279.0368,338.3038,274.4188,341.571,283.965,339.148" style="stroke: #A80036; stroke-width: 1.0;"/><!--link hmip to xmlrpc--><path d="M146.235,377.294 C179.806,371.384 237.914,361.154 278.526,354.005 " fill="none" id="hmip-xmlrpc" style="stroke: #A80036; stroke-width: 1.0;"/><polygon fill="#A80036" points="283.887,353.061,274.3297,350.6825,278.9628,353.9281,275.7171,358.5612,283.887,353.061" style="stroke: #A80036; stroke-width: 1.0;"/><!--link hmipwired to xmlrpc--><path d="M168.225,447.047 C187.798,442.248 208.996,433.595 223,418 C233.951,405.805 220.315,394.429 231,382 C243.173,367.839 261.598,359.22 278.845,353.987 " fill="none" id="hmipwired-xmlrpc" style="stroke: #A80036; stroke-width: 1.0;"/><polygon fill="#A80036" points="283.672,352.6,273.9172,351.2421,278.8666,353.9813,276.1273,358.9307,283.672,352.6" style="stroke: #A80036; stroke-width: 1.0;"/><!--link cuxd to binrpc--><path d="M147.633,516.905 C168.973,510.956 198.681,501.436 223,489 C250.272,475.054 278.419,454.377 298.049,438.755 " fill="none" id="cuxd-binrpc" style="stroke: #A80036; stroke-width: 1.0;"/><polygon fill="#A80036" points="302.353,435.302,292.8298,437.8135,298.4528,438.4307,297.8357,444.0538,302.353,435.302" style="stroke: #A80036; stroke-width: 1.0;"/><!--link hmskript to abglmeta--><path d="M368.476,279.351 C393.339,281.898 425.476,285.19 454.602,288.174 " fill="none" id="hmskript-abglmeta" style="stroke: #A80036; stroke-width: 1.0;"/><!--link binrpc to abglmeta--><path d="M363.225,398.926 C373.616,393.664 384.839,387.773 395,382 C428.034,363.233 464.352,340.134 491.142,322.603 " fill="none" id="binrpc-abglmeta" style="stroke: #A80036; stroke-width: 1.0;"/><!--link xmlrpc to abglmeta--><path d="M366.013,336.241 C391.298,330.074 424.787,321.906 454.983,314.541 " fill="none" id="xmlrpc-abglmeta" style="stroke: #A80036; stroke-width: 1.0;"/><!--link abglmeta to db--><path d="M575.265,322.632 C589.884,332.81 605.877,345.094 619,358 C650.14,388.626 679.371,428.822 699.468,458.96 " fill="none" id="abglmeta-db" style="stroke: #A80036; stroke-width: 1.0;"/><!--link backup to db--><path d="M727.5,575.116 C727.5,565.127 727.5,555.137 727.5,545.148 " fill="none" id="backup-db" style="stroke: #A80036; stroke-width: 1.0;"/><polygon fill="#A80036" points="727.5,580.34,731.5,571.34,727.5,575.34,723.5,571.34,727.5,580.34" style="stroke: #A80036; stroke-width: 1.0;"/><!--link hmskript to puffer--><path d="M367.064,293.031 C376.691,298.156 386.585,304.216 395,311 C422.025,332.786 415.955,351.992 445,371 C453.497,376.561 463.257,380.912 473.081,384.308 " fill="none" id="hmskript-puffer" style="stroke: #A80036; stroke-width: 1.0;"/><polygon fill="#A80036" points="477.904,385.899,470.611,379.2799,473.1559,384.332,468.1038,386.8769,477.904,385.899" style="stroke: #A80036; stroke-width: 1.0;"/><!--link binrpc to puffer--><path d="M363.6,413.148 C394.118,410.022 437.674,405.56 472.707,401.971 " fill="none" id="binrpc-puffer" style="stroke: #A80036; stroke-width: 1.0;"/><polygon fill="#A80036" points="477.812,401.449,468.451,398.3878,472.8381,401.959,469.2669,406.3461,477.812,401.449" style="stroke: #A80036; stroke-width: 1.0;"/><!--link xmlrpc to puffer--><path d="M366.013,355.759 C396.443,363.181 438.755,373.501 472.911,381.832 " fill="none" id="xmlrpc-puffer" style="stroke: #A80036; stroke-width: 1.0;"/><polygon fill="#A80036" points="477.889,383.046,470.0944,377.0257,473.0316,381.8602,468.1971,384.7975,477.889,383.046" style="stroke: #A80036; stroke-width: 1.0;"/><!--link overfl to puffer--><path d="M532,447.246 C532,437.363 532,427.479 532,417.596 " fill="none" id="overfl-puffer" style="stroke: #A80036; stroke-width: 1.0;"/><polygon fill="#A80036" points="532,452.414,536,443.414,532,447.414,528,443.414,532,452.414" style="stroke: #A80036; stroke-width: 1.0;"/><!--link preproc to overfl--><path d="M532,535.079 C532,525.309 532,515.539 532,505.77 " fill="none" id="preproc-overfl" style="stroke: #A80036; stroke-width: 1.0;"/><polygon fill="#A80036" points="532,540.188,536,531.188,532,535.188,528,531.188,532,540.188" style="stroke: #A80036; stroke-width: 1.0;"/><!--link firstar to preproc--><path d="M532,623.079 C532,613.309 532,603.539 532,593.77 " fill="none" id="firstar-preproc" style="stroke: #A80036; stroke-width: 1.0;"/><polygon fill="#A80036" points="532,628.188,536,619.188,532,623.188,528,619.188,532,628.188" style="stroke: #A80036; stroke-width: 1.0;"/><!--link firstar to db--><path d="M580.569,634.07 C593.531,627.472 607.233,619.627 619,611 C626.206,605.717 655.499,575.913 681.69,548.804 " fill="none" id="firstar-db" style="stroke: #A80036; stroke-width: 1.0;"/><polygon fill="#A80036" points="685.196,545.171,676.0672,548.8676,681.7232,548.7681,681.8226,554.4241,685.196,545.171" style="stroke: #A80036; stroke-width: 1.0;"/><!--link db to postgresql--><path d="M740.247,458.831 C753.83,415.808 779.89,350.103 822,307 C831.039,297.748 842.383,290.054 853.903,283.799 " fill="none" id="db-postgresql" style="stroke: #A80036; stroke-width: 1.0;"/><polygon fill="#A80036" points="858.496,281.383,848.6685,282.0313,854.0705,283.71,852.3917,289.112,858.496,281.383" style="stroke: #A80036; stroke-width: 1.0;"/><!--link db to jdbc--><path d="M776.947,458.829 C791.414,445.983 807.326,431.896 822,419 C843.333,400.251 867.686,379.08 885.438,363.689 " fill="none" id="db-jdbc" style="stroke: #A80036; stroke-width: 1.0;"/><polygon fill="#A80036" points="889.348,360.299,879.9269,363.1699,885.5693,363.5734,885.1659,369.2158,889.348,360.299" style="stroke: #A80036; stroke-width: 1.0;"/><!--link db to webapp--><path d="M775.925,545.218 C790.1,556.814 806.113,568.701 822,578 C831.398,583.501 841.822,588.489 852.122,592.864 " fill="none" id="db-webapp" style="stroke: #A80036; stroke-width: 1.0;"/><polygon fill="#A80036" points="856.842,594.831,850.0742,587.6758,852.227,592.907,846.9958,595.0598,856.842,594.831" style="stroke: #A80036; stroke-width: 1.0;"/><!--link db to export--><path d="M786.086,489.344 C807.875,484.555 832.632,479.114 854.293,474.353 " fill="none" id="db-export" style="stroke: #A80036; stroke-width: 1.0;"/><polygon fill="#A80036" points="859.44,473.222,849.7914,471.246,854.5564,474.2947,851.5077,479.0597,859.44,473.222" style="stroke: #A80036; stroke-width: 1.0;"/><!--link db to custom--><path d="M772.575,545.074 C777.426,550.853 782.036,556.898 786,563 C808.574,597.747 793.667,618.765 822,649 C830.316,657.874 840.81,665.207 851.64,671.172 " fill="none" id="db-custom" style="stroke: #A80036; stroke-width: 1.0;"/><polygon fill="#A80036" points="856.296,673.645,850.2224,665.8918,851.8798,671.3004,846.4711,672.9578,856.296,673.645" style="stroke: #A80036; stroke-width: 1.0;"/><!--link db to jsonrpc--><path d="M786.086,514.656 C810.781,520.084 839.289,526.349 862.781,531.512 " fill="none" id="db-jsonrpc" style="stroke: #A80036; stroke-width: 1.0;"/><polygon fill="#A80036" points="867.714,532.597,859.7821,526.7588,862.8305,531.524,858.0653,534.5724,867.714,532.597" style="stroke: #A80036; stroke-width: 1.0;"/><!--link custom to webb--><path d="M966.668,686.7881 C1004.047,682.5015 1053.06,676.8809 1087.7,672.908 " fill="none" id="custom-webb" style="stroke: #A80036; stroke-width: 1.0;"/><polygon fill="#A80036" points="1092.71,672.334,1083.3118,669.3888,1087.7428,672.9054,1084.2261,677.3364,1092.71,672.334" style="stroke: #A80036; stroke-width: 1.0;"/><!--link webapp to webb--><path d="M977.022,629.279 C1012.78,638.299 1056.23,649.263 1087.77,657.219 " fill="none" id="webapp-webb" style="stroke: #A80036; stroke-width: 1.0;"/><polygon fill="#A80036" points="1092.72,658.469,1084.9614,652.4024,1087.8698,657.2543,1083.0179,660.1627,1092.72,658.469" style="stroke: #A80036; stroke-width: 1.0;"/><!--link postgresql to grafana--><path d="M947.043,235.38 C990.134,202.172 1062.97,146.045 1102.66,115.451 " fill="none" id="postgresql-grafana" style="stroke: #A80036; stroke-width: 1.0;"/><polygon fill="#A80036" points="1106.87,112.211,1097.3016,114.5446,1102.9122,115.2664,1102.1903,120.8771,1106.87,112.211" style="stroke: #A80036; stroke-width: 1.0;"/><!--link postgresql to itfpostgresql--><path d="M964.716,256.73 C998.195,253.352 1041.59,248.973 1075.58,245.542 " fill="none" id="postgresql-itfpostgresql" style="stroke: #A80036; stroke-width: 1.0;"/><polygon fill="#A80036" points="1080.96,245,1071.6051,241.9202,1075.9851,245.5001,1072.4052,249.8801,1080.96,245" style="stroke: #A80036; stroke-width: 1.0;"/><!--link postgresql to itfodbc--><path d="M964.716,273.737 C1005.056,282.804 1059.79,295.107 1095.13,303.051 " fill="none" id="postgresql-itfodbc" style="stroke: #A80036; stroke-width: 1.0;"/><polygon fill="#A80036" points="1100.2,304.19,1092.3002,298.3084,1095.3224,303.0902,1090.5406,306.1125,1100.2,304.19" style="stroke: #A80036; stroke-width: 1.0;"/><!--link jdbc to itfjdbc--><path d="M938.796,346.825 C979.169,354.233 1056.26,368.379 1099.37,376.288 " fill="none" id="jdbc-itfjdbc" style="stroke: #A80036; stroke-width: 1.0;"/><polygon fill="#A80036" points="1104.45,377.22,1096.3172,371.665,1099.5317,376.3198,1094.8769,379.5343,1104.45,377.22" style="stroke: #A80036; stroke-width: 1.0;"/><!--link export to itfhttp--><path d="M963.611,462 C1004.034,462 1059.42,462 1095.09,462 " fill="none" id="export-itfhttp" style="stroke: #A80036; stroke-width: 1.0;"/><polygon fill="#A80036" points="1100.2,462,1091.2,458,1095.2,462,1091.2,466,1100.2,462" style="stroke: #A80036; stroke-width: 1.0;"/><!--link jsonrpc to itfjsonrpc--><path d="M955.05,542 C991.693,542 1044.54,542 1082.64,542 " fill="none" id="jsonrpc-itfjsonrpc" style="stroke: #A80036; stroke-width: 1.0;"/><polygon fill="#A80036" points="1087.69,542,1078.69,538,1082.69,542,1078.69,546,1087.69,542" style="stroke: #A80036; stroke-width: 1.0;"/><!--
@startuml
left to right direction

rectangle "CCU1/2/3\nRaspberryMatic\npiVCCU/YAHM\n(bis zu 10 Zentralen)" {
  rectangle "Schnittstellen" as ccuitf #line.dashed {
    rectangle "RegaHss" as regahss
    rectangle "BidCos-RF" as bidcosrf
    rectangle "BidCos-Wired" as bidcoswired #line.dotted
    rectangle "HmIP" as hmip
    rectangle "HmIP-Wired" as hmipwired #line.dotted
    rectangle "CUxD" as cuxd #line.dotted
  }
}

rectangle "CCU-Historian" {
  rectangle "Schnittstellen" #line.dashed {
    rectangle "HM-Skript" as hmskript
    rectangle "XML-RPC" as xmlrpc
    rectangle "BIN-RPC" as binrpc
  }

  regahss - -> hmskript
  bidcosrf - -> xmlrpc
  bidcoswired - -> xmlrpc
  hmip - -> xmlrpc
  hmipwired - -> xmlrpc
  cuxd - -> binrpc

  rectangle "Abgleich\nMeta-Informationen" as abglmeta
  hmskript - - abglmeta
  binrpc - - abglmeta
  xmlrpc - - abglmeta

  database db [
    Zeitreihen-
    Datenbank
    - - -
    H2Database
  ]
  abglmeta - - db

  rectangle "Autom.\nBackup" as backup
  backup <- db

  rectangle "Vorverarbeitung" #line.dashed {
    queue "Puffer\nArb.Speicher" as puffer
    hmskript - -> puffer
    binrpc - -> puffer
    xmlrpc - -> puffer

    rectangle "Überlauf-\nbehandlung" as overfl
    overfl <- puffer

    rectangle "Präprozessor\nKompr./Mittelw." as preproc
    preproc <- overfl 

    rectangle "Kennz.\nErster Wert" as firstar
    firstar <- preproc 
  }
  firstar - -> db

  rectangle "Datenbank-\nSchnittstellen" #line.dashed {
    rectangle "PostgreSQL-\nProtokoll" as postgresql
    db - -> postgresql

    rectangle "JDBC" as jdbc
    db - -> jdbc
  }

  rectangle "Web-Server" #line.dashed {
    rectangle "Web-Applikation" as webapp
    rectangle "Trend-/CSV-\nExport" as export
    rectangle "JSON-RPC" as jsonrpc
    rectangle "Benutzerdef.\nSeiten" as custom

    db - -> webapp
    db - -> export
    db - -> custom
    db - -> jsonrpc
  }
}

rectangle "Web-\nBrowser" as webb
custom - -> webb
webapp - -> webb

rectangle "Grafana" as grafana
postgresql - -> grafana

rectangle "Fremd-\nApplikationen" {
  rectangle "Schnittstellen" as appitf #line.dashed {
    rectangle "PostgreSQL" as itfpostgresql
    rectangle "ODBC" as itfodbc
    rectangle "JDBC" as itfjdbc
    rectangle "HTTP-\nClient" as itfhttp
    rectangle "JSON-RPC" as itfjsonrpc

    postgresql - -> itfpostgresql
    postgresql - -> itfodbc
    jdbc - -> itfjdbc
    export - -> itfhttp
    jsonrpc - -> itfjsonrpc
  }
}
@enduml

PlantUML version 1.2019.00(Sun Jan 13 15:46:42 UTC 2019)
(GPL source distribution)
Java Runtime: Java(TM) SE Runtime Environment
JVM: Java HotSpot(TM) 64-Bit Server VM
Java Version: 1.7.0_25-b15
Operating System: Linux
Default Encoding: UTF-8
Language: en
Country: US
--></g></svg>