<?xml version="1.0" encoding="UTF-8" standalone="no"?><svg xmlns="http://www.w3.org/2000/svg" xmlns:xlink="http://www.w3.org/1999/xlink" contentScriptType="application/ecmascript" contentStyleType="text/css" height="736px" preserveAspectRatio="none" style="width:1233px;height:736px;" version="1.1" viewBox="0 0 1233 736" width="1233px" zoomAndPan="magnify"><defs><filter height="300%" id="fjtvnwzv6q58l" width="300%" x="-1" y="-1"><feGaussianBlur result="blurOut" stdDeviation="2.0"/><feColorMatrix in="blurOut" result="blurOut2" type="matrix" values="0 0 0 0 0 0 0 0 0 0 0 0 0 0 0 0 0 0 .4 0"/><feOffset dx="4.0" dy="4.0" in="blurOut2" result="blurOut3"/><feBlend in="SourceGraphic" in2="blurOut3" mode="normal"/></filter></defs><g><!--cluster CCU1/2/3\nRaspberryMatic\npiVCCU/YAHM\n(bis zu 10 Zentralen)--><rect fill="#FFFFFF" filter="url(#fjtvnwzv6q58l)" height="487" style="stroke: #000000; stroke-width: 1.5;" width="193" x="22" y="24"/><text fill="#000000" font-family="sans-serif" font-size="14" font-weight="bold" lengthAdjust="spacingAndGlyphs" textLength="73" x="82" y="38.9951">CCU1/2/3</text><text fill="#000000" font-family="sans-serif" font-size="14" font-weight="bold" lengthAdjust="spacingAndGlyphs" textLength="122" x="57.5" y="55.292">RaspberryMatic</text><text fill="#000000" font-family="sans-serif" font-size="14" font-weight="bold" lengthAdjust="spacingAndGlyphs" textLength="108" x="64.5" y="71.5889">piVCCU/YAHM</text><text fill="#000000" font-family="sans-serif" font-size="14" font-weight="bold" lengthAdjust="spacingAndGlyphs" textLength="166" x="35.5" y="87.8857">(bis zu 10 Zentralen)</text><!--cluster ccuitf--><rect fill="#FFFFFF" filter="url(#fjtvnwzv6q58l)" height="371" style="stroke: #000000; stroke-width: 1.0; stroke-dasharray: 7.0,7.0;" width="145" x="46" y="116"/><text fill="#000000" font-family="sans-serif" font-size="14" font-weight="bold" lengthAdjust="spacingAndGlyphs" textLength="108" x="64.5" y="130.9951">Schnittstellen</text><!--cluster CCU-Historian--><rect fill="#FFFFFF" filter="url(#fjtvnwzv6q58l)" height="619" style="stroke: #000000; stroke-width: 1.5;" width="778" x="239" y="106"/><text fill="#000000" font-family="sans-serif" font-size="14" font-weight="bold" lengthAdjust="spacingAndGlyphs" textLength="109" x="573.5" y="120.9951">CCU-Historian</text><!--cluster Schnittstellen--><rect fill="#FFFFFF" filter="url(#fjtvnwzv6q58l)" height="229" style="stroke: #000000; stroke-width: 1.0; stroke-dasharray: 7.0,7.0;" width="124" x="263" y="187"/><text fill="#000000" font-family="sans-serif" font-size="14" font-weight="bold" lengthAdjust="spacingAndGlyphs" textLength="108" x="271" y="201.9951">Schnittstellen</text><!--cluster Vorverarbeitung--><rect fill="#FFFFFF" filter="url(#fjtvnwzv6q58l)" height="359" style="stroke: #000000; stroke-width: 1.0; stroke-dasharray: 7.0,7.0;" width="158" x="453" y="304"/><text fill="#000000" font-family="sans-serif" font-size="14" font-weight="bold" lengthAdjust="spacingAndGlyphs" textLength="130" x="467" y="318.9951">Vorverarbeitung</text><!--cluster Datenbank-\nSchnittstellen--><rect fill="#FFFFFF" filter="url(#fjtvnwzv6q58l)" height="192" style="stroke: #000000; stroke-width: 1.0; stroke-dasharray: 7.0,7.0;" width="138" x="842.5" y="149"/><text fill="#000000" font-family="sans-serif" font-size="14" font-weight="bold" lengthAdjust="spacingAndGlyphs" textLength="90" x="866.5" y="163.9951">Datenbank-</text><text fill="#000000" font-family="sans-serif" font-size="14" font-weight="bold" lengthAdjust="spacingAndGlyphs" textLength="108" x="857.5" y="180.292">Schnittstellen</text><!--cluster Web-Server--><rect fill="#FFFFFF" filter="url(#fjtvnwzv6q58l)" height="336" style="stroke: #000000; stroke-width: 1.0; stroke-dasharray: 7.0,7.0;" width="163" x="830" y="365"/><text fill="#000000" font-family="sans-serif" font-size="14" font-weight="bold" lengthAdjust="spacingAndGlyphs" textLength="94" x="864.5" y="379.9951">Web-Server</text><!--cluster Fremd-\nApplikationen--><rect fill="#FFFFFF" filter="url(#fjtvnwzv6q58l)" height="472" style="stroke: #000000; stroke-width: 1.5;" width="181" x="1041" y="93"/><text fill="#000000" font-family="sans-serif" font-size="14" font-weight="bold" lengthAdjust="spacingAndGlyphs" textLength="56" x="1103.5" y="107.9951">Fremd-</text><text fill="#000000" font-family="sans-serif" font-size="14" font-weight="bold" lengthAdjust="spacingAndGlyphs" textLength="107" x="1078" y="124.292">Applikationen</text><!--cluster appitf--><rect fill="#FFFFFF" filter="url(#fjtvnwzv6q58l)" height="389" style="stroke: #000000; stroke-width: 1.0; stroke-dasharray: 7.0,7.0;" width="133" x="1065" y="152"/><text fill="#000000" font-family="sans-serif" font-size="14" font-weight="bold" lengthAdjust="spacingAndGlyphs" textLength="108" x="1077.5" y="166.9951">Schnittstellen</text><!--entity regahss--><rect fill="#FEFECE" filter="url(#fjtvnwzv6q58l)" height="36.2969" style="stroke: #000000; stroke-width: 1.5;" width="82" x="77.5" y="151"/><text fill="#000000" font-family="sans-serif" font-size="14" lengthAdjust="spacingAndGlyphs" textLength="62" x="87.5" y="173.9951">RegaHss</text><!--entity bidcosrf--><rect fill="#FEFECE" filter="url(#fjtvnwzv6q58l)" height="36.2969" style="stroke: #000000; stroke-width: 1.5;" width="92" x="72.5" y="293"/><text fill="#000000" font-family="sans-serif" font-size="14" lengthAdjust="spacingAndGlyphs" textLength="72" x="82.5" y="315.9951">BidCos-RF</text><!--entity bidcoswired--><rect fill="#FEFECE" filter="url(#fjtvnwzv6q58l)" height="36.2969" style="stroke: #000000; stroke-width: 1.0; stroke-dasharray: 1.0,3.0;" width="113" x="62" y="364"/><text fill="#000000" font-family="sans-serif" font-size="14" lengthAdjust="spacingAndGlyphs" textLength="93" x="72" y="386.9951">BidCos-Wired</text><!--entity cuxd--><rect fill="#FEFECE" filter="url(#fjtvnwzv6q58l)" height="36.2969" style="stroke: #000000; stroke-width: 1.0; stroke-dasharray: 1.0,3.0;" width="58" x="89.5" y="222"/><text fill="#000000" font-family="sans-serif" font-size="14" lengthAdjust="spacingAndGlyphs" textLength="38" x="99.5" y="244.9951">CUxD</text><!--entity hmip--><rect fill="#FEFECE" filter="url(#fjtvnwzv6q58l)" height="36.2969" style="stroke: #000000; stroke-width: 1.5;" width="59" x="89" y="435"/><text fill="#000000" font-family="sans-serif" font-size="14" lengthAdjust="spacingAndGlyphs" textLength="39" x="99" y="457.9951">HM-IP</text><!--entity abglmeta--><rect fill="#FEFECE" filter="url(#fjtvnwzv6q58l)" height="52.5938" style="stroke: #000000; stroke-width: 1.5;" width="154" x="455" y="234.5"/><text fill="#000000" font-family="sans-serif" font-size="14" lengthAdjust="spacingAndGlyphs" textLength="59" x="465" y="257.4951">Abgleich</text><text fill="#000000" font-family="sans-serif" font-size="14" lengthAdjust="spacingAndGlyphs" textLength="134" x="465" y="273.792">Meta-Informationen</text><!--entity db--><path d="M669,434 C669,424 727.5,424 727.5,424 C727.5,424 786,424 786,434 L786,499.8906 C786,509.8906 727.5,509.8906 727.5,509.8906 C727.5,509.8906 669,509.8906 669,499.8906 L669,434 " fill="#FEFECE" filter="url(#fjtvnwzv6q58l)" style="stroke: #000000; stroke-width: 1.5;"/><path d="M669,434 C669,444 727.5,444 727.5,444 C727.5,444 786,444 786,434 " fill="none" style="stroke: #000000; stroke-width: 1.5;"/><text fill="#000000" font-family="sans-serif" font-size="14" lengthAdjust="spacingAndGlyphs" textLength="76" x="679" y="460.9951">Zeitreihen-</text><text fill="#000000" font-family="sans-serif" font-size="14" lengthAdjust="spacingAndGlyphs" textLength="76" x="679" y="477.292">Datenbank</text><path d="M669,475.5938 C669,485.5938 727.5,485.5938 727.5,485.5938 C727.5,485.5938 786,485.5938 786,475.5938 " fill="none" style="stroke: #000000; stroke-width: 1.0;"/><text fill="#000000" font-family="sans-serif" font-size="14" lengthAdjust="spacingAndGlyphs" textLength="85" x="685" y="497.5889">H2Database</text><!--entity backup--><rect fill="#FEFECE" filter="url(#fjtvnwzv6q58l)" height="52.5938" style="stroke: #000000; stroke-width: 1.5;" width="72" x="691.5" y="545.5"/><text fill="#000000" font-family="sans-serif" font-size="14" lengthAdjust="spacingAndGlyphs" textLength="49" x="701.5" y="568.4951">Autom.</text><text fill="#000000" font-family="sans-serif" font-size="14" lengthAdjust="spacingAndGlyphs" textLength="52" x="701.5" y="584.792">Backup</text><!--entity hmskript--><rect fill="#FEFECE" filter="url(#fjtvnwzv6q58l)" height="36.2969" style="stroke: #000000; stroke-width: 1.5;" width="86" x="282" y="222"/><text fill="#000000" font-family="sans-serif" font-size="14" lengthAdjust="spacingAndGlyphs" textLength="66" x="292" y="244.9951">HM-Skript</text><!--entity binrpc--><rect fill="#FEFECE" filter="url(#fjtvnwzv6q58l)" height="36.2969" style="stroke: #000000; stroke-width: 1.5;" width="77" x="286.5" y="293"/><text fill="#000000" font-family="sans-serif" font-size="14" lengthAdjust="spacingAndGlyphs" textLength="57" x="296.5" y="315.9951">BIN-RPC</text><!--entity xmlrpc--><rect fill="#FEFECE" filter="url(#fjtvnwzv6q58l)" height="36.2969" style="stroke: #000000; stroke-width: 1.5;" width="82" x="284" y="364"/><text fill="#000000" font-family="sans-serif" font-size="14" lengthAdjust="spacingAndGlyphs" textLength="62" x="294" y="386.9951">XML-RPC</text><!--entity puffer--><path d="M483,339.5 L581,339.5 C586,339.5 586,360.7969 586,360.7969 C586,360.7969 586,382.0938 581,382.0938 L483,382.0938 C478,382.0938 478,360.7969 478,360.7969 C478,360.7969 478,339.5 483,339.5 " fill="#FEFECE" filter="url(#fjtvnwzv6q58l)" style="stroke: #A80036; stroke-width: 1.5;"/><path d="M581,339.5 C576,339.5 576,360.7969 576,360.7969 C576,382.0938 581,382.0938 581,382.0938 " fill="none" style="stroke: #A80036; stroke-width: 1.5;"/><text fill="#000000" font-family="sans-serif" font-size="14" lengthAdjust="spacingAndGlyphs" textLength="40" x="483" y="357.4951">Puffer</text><text fill="#000000" font-family="sans-serif" font-size="14" lengthAdjust="spacingAndGlyphs" textLength="88" x="483" y="373.792">Arb.Speicher</text><!--entity overfl--><rect fill="#FEFECE" filter="url(#fjtvnwzv6q58l)" height="52.5938" style="stroke: #000000; stroke-width: 1.5;" width="103" x="480.5" y="417.5"/><text fill="#000000" font-family="sans-serif" font-size="14" lengthAdjust="spacingAndGlyphs" textLength="62" x="490.5" y="440.4951">Überlauf-</text><text fill="#000000" font-family="sans-serif" font-size="14" lengthAdjust="spacingAndGlyphs" textLength="83" x="490.5" y="456.792">behandlung</text><!--entity preproc--><rect fill="#FEFECE" filter="url(#fjtvnwzv6q58l)" height="52.5938" style="stroke: #000000; stroke-width: 1.5;" width="126" x="469" y="505.5"/><text fill="#000000" font-family="sans-serif" font-size="14" lengthAdjust="spacingAndGlyphs" textLength="92" x="479" y="528.4951">Präprozessor</text><text fill="#000000" font-family="sans-serif" font-size="14" lengthAdjust="spacingAndGlyphs" textLength="106" x="479" y="544.792">Kompr./Mittelw.</text><!--entity firstar--><rect fill="#FEFECE" filter="url(#fjtvnwzv6q58l)" height="52.5938" style="stroke: #000000; stroke-width: 1.5;" width="97" x="483.5" y="593.5"/><text fill="#000000" font-family="sans-serif" font-size="14" lengthAdjust="spacingAndGlyphs" textLength="48" x="493.5" y="616.4951">Kennz.</text><text fill="#000000" font-family="sans-serif" font-size="14" lengthAdjust="spacingAndGlyphs" textLength="77" x="493.5" y="632.792">Erster Wert</text><!--entity postgresql--><rect fill="#FEFECE" filter="url(#fjtvnwzv6q58l)" height="52.5938" style="stroke: #000000; stroke-width: 1.5;" width="106" x="858.5" y="200.5"/><text fill="#000000" font-family="sans-serif" font-size="14" lengthAdjust="spacingAndGlyphs" textLength="86" x="868.5" y="223.4951">PostgreSQL-</text><text fill="#000000" font-family="sans-serif" font-size="14" lengthAdjust="spacingAndGlyphs" textLength="60" x="868.5" y="239.792">Protokoll</text><!--entity jdbc--><rect fill="#FEFECE" filter="url(#fjtvnwzv6q58l)" height="36.2969" style="stroke: #000000; stroke-width: 1.5;" width="54" x="884.5" y="289"/><text fill="#000000" font-family="sans-serif" font-size="14" lengthAdjust="spacingAndGlyphs" textLength="34" x="894.5" y="311.9951">JDBC</text><!--entity webapp--><rect fill="#FEFECE" filter="url(#fjtvnwzv6q58l)" height="36.2969" style="stroke: #000000; stroke-width: 1.5;" width="131" x="846" y="560"/><text fill="#000000" font-family="sans-serif" font-size="14" lengthAdjust="spacingAndGlyphs" textLength="111" x="856" y="582.9951">Web-Applikation</text><!--entity export--><rect fill="#FEFECE" filter="url(#fjtvnwzv6q58l)" height="52.5938" style="stroke: #000000; stroke-width: 1.5;" width="104" x="859.5" y="400.5"/><text fill="#000000" font-family="sans-serif" font-size="14" lengthAdjust="spacingAndGlyphs" textLength="84" x="869.5" y="423.4951">Trend-/CSV-</text><text fill="#000000" font-family="sans-serif" font-size="14" lengthAdjust="spacingAndGlyphs" textLength="44" x="869.5" y="439.792">Export</text><!--entity jsonrpc--><rect fill="#FEFECE" filter="url(#fjtvnwzv6q58l)" height="36.2969" style="stroke: #000000; stroke-width: 1.5;" width="87" x="868" y="489"/><text fill="#000000" font-family="sans-serif" font-size="14" lengthAdjust="spacingAndGlyphs" textLength="67" x="878" y="511.9951">JSON-RPC</text><!--entity custom--><rect fill="#FEFECE" filter="url(#fjtvnwzv6q58l)" height="52.5938" style="stroke: #000000; stroke-width: 1.5;" width="110" x="856.5" y="631.5"/><text fill="#000000" font-family="sans-serif" font-size="14" lengthAdjust="spacingAndGlyphs" textLength="90" x="866.5" y="654.4951">Benutzerdef.</text><text fill="#000000" font-family="sans-serif" font-size="14" lengthAdjust="spacingAndGlyphs" textLength="44" x="866.5" y="670.792">Seiten</text><!--entity itfpostgresql--><rect fill="#FEFECE" filter="url(#fjtvnwzv6q58l)" height="36.2969" style="stroke: #000000; stroke-width: 1.5;" width="101" x="1081" y="187"/><text fill="#000000" font-family="sans-serif" font-size="14" lengthAdjust="spacingAndGlyphs" textLength="81" x="1091" y="209.9951">PostgreSQL</text><!--entity itfodbc--><rect fill="#FEFECE" filter="url(#fjtvnwzv6q58l)" height="36.2969" style="stroke: #000000; stroke-width: 1.5;" width="62" x="1100.5" y="258"/><text fill="#000000" font-family="sans-serif" font-size="14" lengthAdjust="spacingAndGlyphs" textLength="42" x="1110.5" y="280.9951">ODBC</text><!--entity itfjdbc--><rect fill="#FEFECE" filter="url(#fjtvnwzv6q58l)" height="36.2969" style="stroke: #000000; stroke-width: 1.5;" width="54" x="1104.5" y="329"/><text fill="#000000" font-family="sans-serif" font-size="14" lengthAdjust="spacingAndGlyphs" textLength="34" x="1114.5" y="351.9951">JDBC</text><!--entity itfhttp--><rect fill="#FEFECE" filter="url(#fjtvnwzv6q58l)" height="52.5938" style="stroke: #000000; stroke-width: 1.5;" width="62" x="1100.5" y="400.5"/><text fill="#000000" font-family="sans-serif" font-size="14" lengthAdjust="spacingAndGlyphs" textLength="42" x="1110.5" y="423.4951">HTTP-</text><text fill="#000000" font-family="sans-serif" font-size="14" lengthAdjust="spacingAndGlyphs" textLength="39" x="1110.5" y="439.792">Client</text><!--entity itfjsonrpc--><rect fill="#FEFECE" filter="url(#fjtvnwzv6q58l)" height="36.2969" style="stroke: #000000; stroke-width: 1.5;" width="87" x="1088" y="489"/><text fill="#000000" font-family="sans-serif" font-size="14" lengthAdjust="spacingAndGlyphs" textLength="67" x="1098" y="511.9951">JSON-RPC</text><!--entity webb--><rect fill="#FEFECE" filter="url(#fjtvnwzv6q58l)" height="52.5938" style="stroke: #000000; stroke-width: 1.5;" width="77" x="1093" y="606.5"/><text fill="#000000" font-family="sans-serif" font-size="14" lengthAdjust="spacingAndGlyphs" textLength="36" x="1103" y="629.4951">Web-</text><text fill="#000000" font-family="sans-serif" font-size="14" lengthAdjust="spacingAndGlyphs" textLength="57" x="1103" y="645.792">Browser</text><!--entity grafana--><rect fill="#FEFECE" filter="url(#fjtvnwzv6q58l)" height="36.2969" style="stroke: #000000; stroke-width: 1.5;" width="73" x="1095" y="41"/><text fill="#000000" font-family="sans-serif" font-size="14" lengthAdjust="spacingAndGlyphs" textLength="53" x="1105" y="63.9951">Grafana</text><!--link regahss to hmskript--><path d="M159.903,183.027 C193.519,194.699 241.421,211.33 276.798,223.612 " fill="none" id="regahss-hmskript" style="stroke: #A80036; stroke-width: 1.0;"/><polygon fill="#A80036" points="281.924,225.392,274.7335,218.6617,277.2005,223.7523,272.1099,226.2193,281.924,225.392" style="stroke: #A80036; stroke-width: 1.0;"/><!--link bidcosrf to binrpc--><path d="M164.632,311 C199.243,311 246.711,311 280.825,311 " fill="none" id="bidcosrf-binrpc" style="stroke: #A80036; stroke-width: 1.0;"/><polygon fill="#A80036" points="286.181,311,277.181,307,281.181,311,277.181,315,286.181,311" style="stroke: #A80036; stroke-width: 1.0;"/><!--link bidcoswired to binrpc--><path d="M173.543,363.91 C189.489,358.522 206.963,352.569 223,347 C242.128,340.357 263.235,332.86 281.187,326.434 " fill="none" id="bidcoswired-binrpc" style="stroke: #A80036; stroke-width: 1.0;"/><polygon fill="#A80036" points="286.162,324.652,276.3403,323.9215,281.4549,326.3382,279.0382,331.4528,286.162,324.652" style="stroke: #A80036; stroke-width: 1.0;"/><!--link hmip to xmlrpc--><path d="M148.098,443.469 C168.903,436.5 197.735,426.774 223,418 C241.324,411.636 261.465,404.489 278.908,398.25 " fill="none" id="hmip-xmlrpc" style="stroke: #A80036; stroke-width: 1.0;"/><polygon fill="#A80036" points="283.752,396.515,273.9305,395.7809,279.0443,398.1995,276.6257,403.3132,283.752,396.515" style="stroke: #A80036; stroke-width: 1.0;"/><!--link cuxd to binrpc--><path d="M147.506,249.723 C182.089,261.73 241.257,282.273 281.463,296.232 " fill="none" id="cuxd-binrpc" style="stroke: #A80036; stroke-width: 1.0;"/><polygon fill="#A80036" points="286.269,297.9,279.0791,291.169,281.5457,296.2598,276.4549,298.7264,286.269,297.9" style="stroke: #A80036; stroke-width: 1.0;"/><!--link hmskript to abglmeta--><path d="M368.476,244.351 C393.339,246.898 425.476,250.19 454.602,253.174 " fill="none" id="hmskript-abglmeta" style="stroke: #A80036; stroke-width: 1.0;"/><!--link binrpc to abglmeta--><path d="M363.6,301.829 C389.145,295.599 423.827,287.14 454.998,279.537 " fill="none" id="binrpc-abglmeta" style="stroke: #A80036; stroke-width: 1.0;"/><!--link xmlrpc to abglmeta--><path d="M363.225,363.926 C373.616,358.664 384.839,352.773 395,347 C428.034,328.233 464.352,305.134 491.142,287.603 " fill="none" id="xmlrpc-abglmeta" style="stroke: #A80036; stroke-width: 1.0;"/><!--link abglmeta to db--><path d="M575.265,287.632 C589.884,297.81 605.877,310.094 619,323 C650.14,353.626 679.371,393.822 699.468,423.96 " fill="none" id="abglmeta-db" style="stroke: #A80036; stroke-width: 1.0;"/><!--link backup to db--><path d="M727.5,540.116 C727.5,530.127 727.5,520.137 727.5,510.148 " fill="none" id="backup-db" style="stroke: #A80036; stroke-width: 1.0;"/><polygon fill="#A80036" points="727.5,545.34,731.5,536.34,727.5,540.34,723.5,536.34,727.5,545.34" style="stroke: #A80036; stroke-width: 1.0;"/><!--link hmskript to puffer--><path d="M367.064,258.031 C376.691,263.156 386.585,269.216 395,276 C422.025,297.786 415.955,316.992 445,336 C453.497,341.561 463.257,345.912 473.081,349.308 " fill="none" id="hmskript-puffer" style="stroke: #A80036; stroke-width: 1.0;"/><polygon fill="#A80036" points="477.904,350.899,470.611,344.2799,473.1559,349.332,468.1038,351.8769,477.904,350.899" style="stroke: #A80036; stroke-width: 1.0;"/><!--link binrpc to puffer--><path d="M363.6,320.171 C394.118,327.614 437.674,338.238 472.707,346.782 " fill="none" id="binrpc-puffer" style="stroke: #A80036; stroke-width: 1.0;"/><polygon fill="#A80036" points="477.812,348.027,470.017,342.0073,472.9546,346.8416,468.1203,349.7792,477.812,348.027" style="stroke: #A80036; stroke-width: 1.0;"/><!--link xmlrpc to puffer--><path d="M366.013,377.901 C396.443,374.784 438.755,370.449 472.911,366.951 " fill="none" id="xmlrpc-puffer" style="stroke: #A80036; stroke-width: 1.0;"/><polygon fill="#A80036" points="477.889,366.441,468.528,363.3798,472.9151,366.951,469.3439,371.3381,477.889,366.441" style="stroke: #A80036; stroke-width: 1.0;"/><!--link overfl to puffer--><path d="M532,412.246 C532,402.363 532,392.479 532,382.596 " fill="none" id="overfl-puffer" style="stroke: #A80036; stroke-width: 1.0;"/><polygon fill="#A80036" points="532,417.414,536,408.414,532,412.414,528,408.414,532,417.414" style="stroke: #A80036; stroke-width: 1.0;"/><!--link preproc to overfl--><path d="M532,500.079 C532,490.309 532,480.539 532,470.77 " fill="none" id="preproc-overfl" style="stroke: #A80036; stroke-width: 1.0;"/><polygon fill="#A80036" points="532,505.188,536,496.188,532,500.188,528,496.188,532,505.188" style="stroke: #A80036; stroke-width: 1.0;"/><!--link firstar to preproc--><path d="M532,588.079 C532,578.309 532,568.539 532,558.77 " fill="none" id="firstar-preproc" style="stroke: #A80036; stroke-width: 1.0;"/><polygon fill="#A80036" points="532,593.188,536,584.188,532,588.188,528,584.188,532,593.188" style="stroke: #A80036; stroke-width: 1.0;"/><!--link firstar to db--><path d="M580.569,599.07 C593.531,592.472 607.233,584.627 619,576 C626.206,570.717 655.499,540.913 681.69,513.804 " fill="none" id="firstar-db" style="stroke: #A80036; stroke-width: 1.0;"/><polygon fill="#A80036" points="685.196,510.171,676.0672,513.8676,681.7232,513.7681,681.8226,519.4241,685.196,510.171" style="stroke: #A80036; stroke-width: 1.0;"/><!--link db to postgresql--><path d="M740.247,423.831 C753.83,380.808 779.89,315.103 822,272 C831.039,262.748 842.383,255.054 853.903,248.799 " fill="none" id="db-postgresql" style="stroke: #A80036; stroke-width: 1.0;"/><polygon fill="#A80036" points="858.496,246.383,848.6685,247.0313,854.0705,248.71,852.3917,254.112,858.496,246.383" style="stroke: #A80036; stroke-width: 1.0;"/><!--link db to jdbc--><path d="M776.947,423.829 C791.414,410.983 807.326,396.896 822,384 C843.333,365.251 867.686,344.08 885.438,328.689 " fill="none" id="db-jdbc" style="stroke: #A80036; stroke-width: 1.0;"/><polygon fill="#A80036" points="889.348,325.299,879.9269,328.1699,885.5693,328.5734,885.1659,334.2158,889.348,325.299" style="stroke: #A80036; stroke-width: 1.0;"/><!--link db to webapp--><path d="M775.925,510.218 C790.1,521.814 806.113,533.701 822,543 C831.398,548.501 841.822,553.489 852.122,557.864 " fill="none" id="db-webapp" style="stroke: #A80036; stroke-width: 1.0;"/><polygon fill="#A80036" points="856.842,559.831,850.0742,552.6758,852.227,557.907,846.9958,560.0598,856.842,559.831" style="stroke: #A80036; stroke-width: 1.0;"/><!--link db to export--><path d="M786.086,454.344 C807.875,449.555 832.632,444.114 854.293,439.353 " fill="none" id="db-export" style="stroke: #A80036; stroke-width: 1.0;"/><polygon fill="#A80036" points="859.44,438.222,849.7914,436.246,854.5564,439.2947,851.5077,444.0597,859.44,438.222" style="stroke: #A80036; stroke-width: 1.0;"/><!--link db to custom--><path d="M772.575,510.074 C777.426,515.853 782.036,521.898 786,528 C808.574,562.747 793.667,583.765 822,614 C830.316,622.874 840.81,630.207 851.64,636.172 " fill="none" id="db-custom" style="stroke: #A80036; stroke-width: 1.0;"/><polygon fill="#A80036" points="856.296,638.645,850.2224,630.8918,851.8798,636.3004,846.4711,637.9578,856.296,638.645" style="stroke: #A80036; stroke-width: 1.0;"/><!--link db to jsonrpc--><path d="M786.086,479.656 C810.781,485.084 839.289,491.349 862.781,496.512 " fill="none" id="db-jsonrpc" style="stroke: #A80036; stroke-width: 1.0;"/><polygon fill="#A80036" points="867.714,497.597,859.7821,491.7588,862.8305,496.524,858.0653,499.5724,867.714,497.597" style="stroke: #A80036; stroke-width: 1.0;"/><!--link custom to webb--><path d="M966.668,651.7881 C1004.047,647.5015 1053.06,641.8809 1087.7,637.908 " fill="none" id="custom-webb" style="stroke: #A80036; stroke-width: 1.0;"/><polygon fill="#A80036" points="1092.71,637.334,1083.3118,634.3888,1087.7428,637.9054,1084.2261,642.3364,1092.71,637.334" style="stroke: #A80036; stroke-width: 1.0;"/><!--link webapp to webb--><path d="M977.022,594.279 C1012.78,603.299 1056.23,614.263 1087.77,622.219 " fill="none" id="webapp-webb" style="stroke: #A80036; stroke-width: 1.0;"/><polygon fill="#A80036" points="1092.72,623.469,1084.9614,617.4024,1087.8698,622.2543,1083.0179,625.1627,1092.72,623.469" style="stroke: #A80036; stroke-width: 1.0;"/><!--link postgresql to grafana--><path d="M947.043,200.38 C990.134,167.172 1062.97,111.045 1102.66,80.451 " fill="none" id="postgresql-grafana" style="stroke: #A80036; stroke-width: 1.0;"/><polygon fill="#A80036" points="1106.87,77.211,1097.3016,79.5446,1102.9122,80.2664,1102.1903,85.8771,1106.87,77.211" style="stroke: #A80036; stroke-width: 1.0;"/><!--link postgresql to itfpostgresql--><path d="M964.716,221.73 C998.195,218.352 1041.59,213.973 1075.58,210.542 " fill="none" id="postgresql-itfpostgresql" style="stroke: #A80036; stroke-width: 1.0;"/><polygon fill="#A80036" points="1080.96,210,1071.6051,206.9202,1075.9851,210.5001,1072.4052,214.8801,1080.96,210" style="stroke: #A80036; stroke-width: 1.0;"/><!--link postgresql to itfodbc--><path d="M964.716,238.737 C1005.056,247.804 1059.79,260.107 1095.13,268.051 " fill="none" id="postgresql-itfodbc" style="stroke: #A80036; stroke-width: 1.0;"/><polygon fill="#A80036" points="1100.2,269.19,1092.3002,263.3084,1095.3224,268.0902,1090.5406,271.1125,1100.2,269.19" style="stroke: #A80036; stroke-width: 1.0;"/><!--link jdbc to itfjdbc--><path d="M938.796,311.825 C979.169,319.233 1056.26,333.379 1099.37,341.288 " fill="none" id="jdbc-itfjdbc" style="stroke: #A80036; stroke-width: 1.0;"/><polygon fill="#A80036" points="1104.45,342.22,1096.3172,336.665,1099.5317,341.3198,1094.8769,344.5343,1104.45,342.22" style="stroke: #A80036; stroke-width: 1.0;"/><!--link export to itfhttp--><path d="M963.611,427 C1004.034,427 1059.42,427 1095.09,427 " fill="none" id="export-itfhttp" style="stroke: #A80036; stroke-width: 1.0;"/><polygon fill="#A80036" points="1100.2,427,1091.2,423,1095.2,427,1091.2,431,1100.2,427" style="stroke: #A80036; stroke-width: 1.0;"/><!--link jsonrpc to itfjsonrpc--><path d="M955.05,507 C991.693,507 1044.54,507 1082.64,507 " fill="none" id="jsonrpc-itfjsonrpc" style="stroke: #A80036; stroke-width: 1.0;"/><polygon fill="#A80036" points="1087.69,507,1078.69,503,1082.69,507,1078.69,511,1087.69,507" style="stroke: #A80036; stroke-width: 1.0;"/><!--
@startuml
left to right direction

rectangle "CCU1/2/3\nRaspberryMatic\npiVCCU/YAHM\n(bis zu 10 Zentralen)" {
  rectangle "Schnittstellen" as ccuitf #line.dashed {
    rectangle "RegaHss" as regahss
    rectangle "BidCos-RF" as bidcosrf
    rectangle "BidCos-Wired" as bidcoswired #line.dotted
    rectangle "CUxD" as cuxd #line.dotted
    rectangle "HM-IP" as hmip
  }
}

rectangle "CCU-Historian" {
  rectangle "Schnittstellen" #line.dashed {
    rectangle "HM-Skript" as hmskript
    rectangle "BIN-RPC" as binrpc
    rectangle "XML-RPC" as xmlrpc
  }

  regahss - -> hmskript
  bidcosrf - -> binrpc
  bidcoswired - -> binrpc
  hmip - -> xmlrpc
  cuxd - -> binrpc

  rectangle "Abgleich\nMeta-Informationen" as abglmeta
  hmskript - - abglmeta
  binrpc - - abglmeta
  xmlrpc - - abglmeta

  database db [
    Zeitreihen-
    Datenbank
    - - -
    H2Database
  ]
  abglmeta - - db

  rectangle "Autom.\nBackup" as backup
  backup <- db

  rectangle "Vorverarbeitung" #line.dashed {
    queue "Puffer\nArb.Speicher" as puffer
    hmskript - -> puffer
    binrpc - -> puffer
    xmlrpc - -> puffer

    rectangle "Überlauf-\nbehandlung" as overfl
    overfl <- puffer

    rectangle "Präprozessor\nKompr./Mittelw." as preproc
    preproc <- overfl 

    rectangle "Kennz.\nErster Wert" as firstar
    firstar <- preproc 
  }
  firstar - -> db

  rectangle "Datenbank-\nSchnittstellen" #line.dashed {
    rectangle "PostgreSQL-\nProtokoll" as postgresql
    db - -> postgresql

    rectangle "JDBC" as jdbc
    db - -> jdbc
  }

  rectangle "Web-Server" #line.dashed {
    rectangle "Web-Applikation" as webapp
    rectangle "Trend-/CSV-\nExport" as export
    rectangle "JSON-RPC" as jsonrpc
    rectangle "Benutzerdef.\nSeiten" as custom

    db - -> webapp
    db - -> export
    db - -> custom
    db - -> jsonrpc
  }
}

rectangle "Web-\nBrowser" as webb
custom - -> webb
webapp - -> webb

rectangle "Grafana" as grafana
postgresql - -> grafana

rectangle "Fremd-\nApplikationen" {
  rectangle "Schnittstellen" as appitf #line.dashed {
    rectangle "PostgreSQL" as itfpostgresql
    rectangle "ODBC" as itfodbc
    rectangle "JDBC" as itfjdbc
    rectangle "HTTP-\nClient" as itfhttp
    rectangle "JSON-RPC" as itfjsonrpc

    postgresql - -> itfpostgresql
    postgresql - -> itfodbc
    jdbc - -> itfjdbc
    export - -> itfhttp
    jsonrpc - -> itfjsonrpc
  }
}
@enduml

PlantUML version 1.2018.02(Fri Mar 09 17:20:44 UTC 2018)
(GPL source distribution)
Java Runtime: Java(TM) SE Runtime Environment
JVM: Java HotSpot(TM) 64-Bit Server VM
Java Version: 1.7.0_25-b15
Operating System: Linux
Default Encoding: UTF-8
Language: en
Country: US
--></g></svg>